<?xml version="1.0" encoding="UTF-8" standalone="no" ?>
<!DOCTYPE svg PUBLIC "-//W3C//DTD SVG 1.1//EN" "http://www.w3.org/Graphics/SVG/1.1/DTD/svg11.dtd">
<svg xmlns="http://www.w3.org/2000/svg" xmlns:xlink="http://www.w3.org/1999/xlink" version="1.1" width="96" height="96" viewBox="0 0 96 96" xml:space="preserve">
<desc>Created with Fabric.js 3.6.6</desc>
<defs>
</defs>
<g transform="matrix(1 0 0 1 48 48)"  >
<g style=""   >
		<g transform="matrix(0 0.7 -0.7 0 0 0)"  >
<rect style="stroke: rgb(51,51,51); stroke-width: 10; stroke-dasharray: none; stroke-linecap: butt; stroke-dashoffset: 0; stroke-linejoin: miter; stroke-miterlimit: 10; fill: rgb(132,94,72); fill-rule: nonzero; opacity: 1;"  x="-64" y="-64" rx="12" ry="12" width="128" height="128" />
</g>
		<g transform="matrix(0.04 -0.69 0.69 0.04 0.37 0.35)"  >
<circle style="stroke: rgb(51,51,51); stroke-width: 8; stroke-dasharray: none; stroke-linecap: butt; stroke-dashoffset: 0; stroke-linejoin: miter; stroke-miterlimit: 10; fill: rgb(102,102,102); fill-rule: nonzero; opacity: 1;"  cx="0" cy="0" r="53.48" />
</g>
</g>
</g>
<g transform="matrix(1 0 0 1 48 48)"  >
<g style=""   >
		<g transform="matrix(0.97 0 0 0.97 0.48 36.36)" id="Layer_1"  >
<circle style="stroke: rgb(51,51,51); stroke-width: 4; stroke-dasharray: none; stroke-linecap: butt; stroke-dashoffset: 0; stroke-linejoin: miter; stroke-miterlimit: 10; fill: rgb(255,147,30); fill-rule: nonzero; opacity: 1;"  cx="0" cy="0" r="10" />
</g>
		<g transform="matrix(0.97 0 0 0.97 0.48 -36.36)" id="Layer_1"  >
<circle style="stroke: rgb(51,51,51); stroke-width: 4; stroke-dasharray: none; stroke-linecap: butt; stroke-dashoffset: 0; stroke-linejoin: miter; stroke-miterlimit: 10; fill: rgb(255,147,30); fill-rule: nonzero; opacity: 1;"  cx="0" cy="0" r="10" />
</g>
		<g transform="matrix(0.97 0 0 0.97 -36.36 2.42)" id="Layer_1"  >
<circle style="stroke: rgb(51,51,51); stroke-width: 4; stroke-dasharray: none; stroke-linecap: butt; stroke-dashoffset: 0; stroke-linejoin: miter; stroke-miterlimit: 10; fill: rgb(255,147,30); fill-rule: nonzero; opacity: 1;"  cx="0" cy="0" r="10" />
</g>
		<g transform="matrix(0.97 0 0 0.97 36.36 2.42)" id="Layer_1"  >
<circle style="stroke: rgb(51,51,51); stroke-width: 4; stroke-dasharray: none; stroke-linecap: butt; stroke-dashoffset: 0; stroke-linejoin: miter; stroke-miterlimit: 10; fill: rgb(255,147,30); fill-rule: nonzero; opacity: 1;"  cx="0" cy="0" r="10" />
</g>
		<g transform="matrix(0.69 -0.69 0.69 0.69 26.05 25.37)" id="Layer_1"  >
<circle style="stroke: rgb(51,51,51); stroke-width: 4; stroke-dasharray: none; stroke-linecap: butt; stroke-dashoffset: 0; stroke-linejoin: miter; stroke-miterlimit: 10; fill: rgb(255,147,30); fill-rule: nonzero; opacity: 1;"  cx="0" cy="0" r="10" />
</g>
		<g transform="matrix(0.69 -0.69 0.69 0.69 -25.37 -26.06)" id="Layer_1"  >
<circle style="stroke: rgb(51,51,51); stroke-width: 4; stroke-dasharray: none; stroke-linecap: butt; stroke-dashoffset: 0; stroke-linejoin: miter; stroke-miterlimit: 10; fill: rgb(255,147,30); fill-rule: nonzero; opacity: 1;"  cx="0" cy="0" r="10" />
</g>
		<g transform="matrix(0.69 -0.69 0.69 0.69 -24 27.42)" id="Layer_1"  >
<circle style="stroke: rgb(51,51,51); stroke-width: 4; stroke-dasharray: none; stroke-linecap: butt; stroke-dashoffset: 0; stroke-linejoin: miter; stroke-miterlimit: 10; fill: rgb(255,147,30); fill-rule: nonzero; opacity: 1;"  cx="0" cy="0" r="10" />
</g>
		<g transform="matrix(0.69 -0.69 0.69 0.69 27.42 -24)" id="Layer_1"  >
<circle style="stroke: rgb(51,51,51); stroke-width: 4; stroke-dasharray: none; stroke-linecap: butt; stroke-dashoffset: 0; stroke-linejoin: miter; stroke-miterlimit: 10; fill: rgb(255,147,30); fill-rule: nonzero; opacity: 1;"  cx="0" cy="0" r="10" />
</g>
		<g transform="matrix(0.97 0 0 0.97 0 0)" id="Layer_3"  >
<circle style="stroke: rgb(51,51,51); stroke-width: 8; stroke-dasharray: none; stroke-linecap: butt; stroke-dashoffset: 0; stroke-linejoin: miter; stroke-miterlimit: 10; fill: rgb(132,94,72); fill-rule: nonzero; opacity: 1;"  cx="0" cy="0" r="30.05" />
</g>
		<g transform="matrix(0.97 0 0 0.97 0 0)" id="Layer_3"  >
<circle style="stroke: rgb(51,51,51); stroke-width: 8; stroke-dasharray: none; stroke-linecap: butt; stroke-dashoffset: 0; stroke-linejoin: miter; stroke-miterlimit: 10; fill: rgb(102,102,102); fill-rule: nonzero; opacity: 1;"  cx="0" cy="0" r="18.87" />
</g>
</g>
</g>
</svg>